<?xml version="1.0" encoding="UTF-8"?>
<svg id="Camada_1" data-name="Camada 1" xmlns="http://www.w3.org/2000/svg" viewBox="0 0 1000 1000">
  <defs>
    <style>
      .cls-1 {
        fill: #070707;
      }
    </style>
  </defs>
  <path class="cls-1" d="M647.68,679.43h-218.28l-179.4-179.43h218.25l179.43,179.43Z"/>
  <path class="cls-1" d="M647.68,320.57c0,99.07-80.36,179.43-179.43,179.43h-218.25c41.09,0,78.9-13.75,109.13-37.04,42.16-32.3,69.5-85.39,70.24-142.4h218.32Z"/>
  <path class="cls-1" d="M724.38,376.51c11.58,0,20.98,9.4,20.98,20.98s-9.4,20.98-20.98,20.98-20.98-9.41-20.98-20.98,9.41-20.98,20.98-20.98ZM724.38,371.84c-14.17,0-25.62,11.48-25.62,25.62s11.48,25.62,25.62,25.62,25.62-11.48,25.62-25.62-11.48-25.62-25.62-25.62Z"/>
  <path class="cls-1" d="M717.08,409.65c-2.11-1.1-3.73-2.69-4.9-4.77-1.16-2.08-1.75-4.54-1.75-7.36s.59-5.35,1.75-7.43c1.17-2.08,2.82-3.7,4.93-4.8,2.11-1.1,4.58-1.65,7.33-1.65,3.44,0,6.36.84,8.73,2.5,2.37,1.65,3.92,3.99,4.7,6.97h-4.67c-.62-1.69-1.65-3.02-3.11-3.92-1.46-.91-3.34-1.36-5.64-1.36-3.11,0-5.48.81-7.07,2.46-1.59,1.65-2.37,4.05-2.37,7.23s.78,5.51,2.37,7.13c1.59,1.65,3.92,2.46,7.07,2.46,2.27,0,4.15-.45,5.61-1.33,1.46-.88,2.5-2.17,3.11-3.89h4.7c-.87,3.21-2.53,5.55-4.9,7.1-2.37,1.52-5.22,2.3-8.53,2.3-2.79,0-5.22-.55-7.33-1.65h-.03Z"/>
</svg>